<mxfile host="app.diagrams.net" agent="Mozilla/5.0 (Windows NT 10.0; Win64; x64) AppleWebKit/537.36 (KHTML, like Gecko) Chrome/129.0.0.0 Safari/537.36" version="24.8.2">
  <diagram name="Сторінка-1" id="Th46dI3GG6hPFFqHUZfM">
    <mxGraphModel grid="1" page="1" gridSize="10" guides="1" tooltips="1" connect="1" arrows="1" fold="1" pageScale="1" pageWidth="827" pageHeight="1169" math="0" shadow="0">
      <root>
        <mxCell id="0" />
        <mxCell id="1" parent="0" />
        <mxCell id="Hm8EP7w0Ib3eiv0fH3QQ-2" style="edgeStyle=orthogonalEdgeStyle;rounded=0;orthogonalLoop=1;jettySize=auto;html=1;" edge="1" parent="1" source="Hm8EP7w0Ib3eiv0fH3QQ-1" target="Hm8EP7w0Ib3eiv0fH3QQ-3">
          <mxGeometry relative="1" as="geometry">
            <mxPoint x="380" y="140" as="targetPoint" />
          </mxGeometry>
        </mxCell>
        <mxCell id="Hm8EP7w0Ib3eiv0fH3QQ-1" value="&lt;p style=&quot;line-height: 120%;&quot;&gt;Start&lt;/p&gt;" style="ellipse;whiteSpace=wrap;html=1;fillColor=#d5e8d4;strokeColor=#82b366;" vertex="1" parent="1">
          <mxGeometry x="320" y="20" width="120" height="80" as="geometry" />
        </mxCell>
        <mxCell id="Hm8EP7w0Ib3eiv0fH3QQ-4" style="edgeStyle=orthogonalEdgeStyle;rounded=0;orthogonalLoop=1;jettySize=auto;html=1;" edge="1" parent="1" source="Hm8EP7w0Ib3eiv0fH3QQ-3" target="Hm8EP7w0Ib3eiv0fH3QQ-5">
          <mxGeometry relative="1" as="geometry">
            <mxPoint x="380" y="280" as="targetPoint" />
          </mxGeometry>
        </mxCell>
        <mxCell id="Hm8EP7w0Ib3eiv0fH3QQ-3" value="init h d c=0&amp;nbsp;" style="rounded=0;whiteSpace=wrap;html=1;" vertex="1" parent="1">
          <mxGeometry x="321" y="140" width="120" height="60" as="geometry" />
        </mxCell>
        <mxCell id="Hm8EP7w0Ib3eiv0fH3QQ-6" style="edgeStyle=orthogonalEdgeStyle;rounded=0;orthogonalLoop=1;jettySize=auto;html=1;" edge="1" parent="1" source="Hm8EP7w0Ib3eiv0fH3QQ-5" target="Hm8EP7w0Ib3eiv0fH3QQ-8">
          <mxGeometry relative="1" as="geometry">
            <mxPoint x="380" y="410" as="targetPoint" />
          </mxGeometry>
        </mxCell>
        <mxCell id="Hm8EP7w0Ib3eiv0fH3QQ-5" value="cin h" style="shape=parallelogram;perimeter=parallelogramPerimeter;whiteSpace=wrap;html=1;fixedSize=1;" vertex="1" parent="1">
          <mxGeometry x="320" y="250" width="120" height="60" as="geometry" />
        </mxCell>
        <mxCell id="Hm8EP7w0Ib3eiv0fH3QQ-9" style="edgeStyle=orthogonalEdgeStyle;rounded=0;orthogonalLoop=1;jettySize=auto;html=1;" edge="1" parent="1" source="Hm8EP7w0Ib3eiv0fH3QQ-8" target="Hm8EP7w0Ib3eiv0fH3QQ-10">
          <mxGeometry relative="1" as="geometry">
            <mxPoint x="380" y="520" as="targetPoint" />
          </mxGeometry>
        </mxCell>
        <mxCell id="Hm8EP7w0Ib3eiv0fH3QQ-8" value="for i=0 &amp;lt; 4" style="shape=loopLimit;whiteSpace=wrap;html=1;" vertex="1" parent="1">
          <mxGeometry x="330" y="370" width="100" height="80" as="geometry" />
        </mxCell>
        <mxCell id="Hm8EP7w0Ib3eiv0fH3QQ-11" style="edgeStyle=orthogonalEdgeStyle;rounded=0;orthogonalLoop=1;jettySize=auto;html=1;" edge="1" parent="1" source="Hm8EP7w0Ib3eiv0fH3QQ-10" target="Hm8EP7w0Ib3eiv0fH3QQ-12">
          <mxGeometry relative="1" as="geometry">
            <mxPoint x="380" y="610" as="targetPoint" />
          </mxGeometry>
        </mxCell>
        <mxCell id="Hm8EP7w0Ib3eiv0fH3QQ-10" value="cin d" style="shape=parallelogram;perimeter=parallelogramPerimeter;whiteSpace=wrap;html=1;fixedSize=1;" vertex="1" parent="1">
          <mxGeometry x="320" y="490" width="120" height="60" as="geometry" />
        </mxCell>
        <mxCell id="Hm8EP7w0Ib3eiv0fH3QQ-13" style="edgeStyle=orthogonalEdgeStyle;rounded=0;orthogonalLoop=1;jettySize=auto;html=1;" edge="1" parent="1" source="Hm8EP7w0Ib3eiv0fH3QQ-12" target="Hm8EP7w0Ib3eiv0fH3QQ-14">
          <mxGeometry relative="1" as="geometry">
            <mxPoint x="380" y="730" as="targetPoint" />
          </mxGeometry>
        </mxCell>
        <mxCell id="Hm8EP7w0Ib3eiv0fH3QQ-12" value="h[i] -= d" style="rounded=0;whiteSpace=wrap;html=1;" vertex="1" parent="1">
          <mxGeometry x="320" y="580" width="120" height="60" as="geometry" />
        </mxCell>
        <mxCell id="Hm8EP7w0Ib3eiv0fH3QQ-15" style="edgeStyle=orthogonalEdgeStyle;rounded=0;orthogonalLoop=1;jettySize=auto;html=1;entryX=1;entryY=0.5;entryDx=0;entryDy=0;" edge="1" parent="1" source="Hm8EP7w0Ib3eiv0fH3QQ-14" target="Hm8EP7w0Ib3eiv0fH3QQ-19">
          <mxGeometry relative="1" as="geometry">
            <mxPoint x="250" y="730" as="targetPoint" />
          </mxGeometry>
        </mxCell>
        <mxCell id="Hm8EP7w0Ib3eiv0fH3QQ-16" value="Так" style="edgeLabel;html=1;align=center;verticalAlign=middle;resizable=0;points=[];" connectable="0" vertex="1" parent="Hm8EP7w0Ib3eiv0fH3QQ-15">
          <mxGeometry x="-0.1823" relative="1" as="geometry">
            <mxPoint as="offset" />
          </mxGeometry>
        </mxCell>
        <mxCell id="Hm8EP7w0Ib3eiv0fH3QQ-17" style="edgeStyle=orthogonalEdgeStyle;rounded=0;orthogonalLoop=1;jettySize=auto;html=1;" edge="1" parent="1" source="Hm8EP7w0Ib3eiv0fH3QQ-14" target="Hm8EP7w0Ib3eiv0fH3QQ-50">
          <mxGeometry relative="1" as="geometry">
            <mxPoint x="510" y="730" as="targetPoint" />
          </mxGeometry>
        </mxCell>
        <mxCell id="Hm8EP7w0Ib3eiv0fH3QQ-18" value="Ні" style="edgeLabel;html=1;align=center;verticalAlign=middle;resizable=0;points=[];" connectable="0" vertex="1" parent="Hm8EP7w0Ib3eiv0fH3QQ-17">
          <mxGeometry x="-0.2928" y="-2" relative="1" as="geometry">
            <mxPoint as="offset" />
          </mxGeometry>
        </mxCell>
        <mxCell id="Hm8EP7w0Ib3eiv0fH3QQ-14" value="h[i] &amp;gt;= 0" style="rhombus;whiteSpace=wrap;html=1;" vertex="1" parent="1">
          <mxGeometry x="340" y="690" width="80" height="80" as="geometry" />
        </mxCell>
        <mxCell id="Hm8EP7w0Ib3eiv0fH3QQ-20" style="edgeStyle=orthogonalEdgeStyle;rounded=0;orthogonalLoop=1;jettySize=auto;html=1;" edge="1" parent="1" source="Hm8EP7w0Ib3eiv0fH3QQ-19" target="Hm8EP7w0Ib3eiv0fH3QQ-21">
          <mxGeometry relative="1" as="geometry">
            <mxPoint x="180" y="830" as="targetPoint" />
          </mxGeometry>
        </mxCell>
        <mxCell id="Hm8EP7w0Ib3eiv0fH3QQ-19" value="max_vel = max el h&lt;br&gt;min_vel = min el h" style="rounded=0;whiteSpace=wrap;html=1;" vertex="1" parent="1">
          <mxGeometry x="120" y="700" width="120" height="60" as="geometry" />
        </mxCell>
        <mxCell id="Hm8EP7w0Ib3eiv0fH3QQ-23" style="edgeStyle=orthogonalEdgeStyle;rounded=0;orthogonalLoop=1;jettySize=auto;html=1;" edge="1" parent="1" source="Hm8EP7w0Ib3eiv0fH3QQ-21" target="Hm8EP7w0Ib3eiv0fH3QQ-24">
          <mxGeometry relative="1" as="geometry">
            <mxPoint x="20" y="860" as="targetPoint" />
          </mxGeometry>
        </mxCell>
        <mxCell id="Hm8EP7w0Ib3eiv0fH3QQ-54" value="Так" style="edgeLabel;html=1;align=center;verticalAlign=middle;resizable=0;points=[];" connectable="0" vertex="1" parent="Hm8EP7w0Ib3eiv0fH3QQ-23">
          <mxGeometry x="-0.1556" y="-1" relative="1" as="geometry">
            <mxPoint as="offset" />
          </mxGeometry>
        </mxCell>
        <mxCell id="Hm8EP7w0Ib3eiv0fH3QQ-25" style="edgeStyle=orthogonalEdgeStyle;rounded=0;orthogonalLoop=1;jettySize=auto;html=1;" edge="1" parent="1" source="Hm8EP7w0Ib3eiv0fH3QQ-21" target="Hm8EP7w0Ib3eiv0fH3QQ-26">
          <mxGeometry relative="1" as="geometry">
            <mxPoint x="330" y="1010" as="targetPoint" />
            <Array as="points">
              <mxPoint x="288" y="860" />
              <mxPoint x="288" y="861" />
            </Array>
          </mxGeometry>
        </mxCell>
        <mxCell id="Hm8EP7w0Ib3eiv0fH3QQ-53" value="Ні" style="edgeLabel;html=1;align=center;verticalAlign=middle;resizable=0;points=[];" connectable="0" vertex="1" parent="Hm8EP7w0Ib3eiv0fH3QQ-25">
          <mxGeometry x="-0.6923" relative="1" as="geometry">
            <mxPoint as="offset" />
          </mxGeometry>
        </mxCell>
        <mxCell id="Hm8EP7w0Ib3eiv0fH3QQ-21" value="max_vel &gt;= min_vel*2 || min_vel == 0" style="rhombus;whiteSpace=wrap;html=1;" vertex="1" parent="1">
          <mxGeometry x="125" y="810" width="110" height="100" as="geometry" />
        </mxCell>
        <mxCell id="Hm8EP7w0Ib3eiv0fH3QQ-52" style="edgeStyle=orthogonalEdgeStyle;rounded=0;orthogonalLoop=1;jettySize=auto;html=1;entryX=0;entryY=0.5;entryDx=0;entryDy=0;" edge="1" parent="1" source="Hm8EP7w0Ib3eiv0fH3QQ-24" target="Hm8EP7w0Ib3eiv0fH3QQ-26">
          <mxGeometry relative="1" as="geometry">
            <mxPoint x="20" y="1030" as="targetPoint" />
            <Array as="points">
              <mxPoint x="20" y="960" />
              <mxPoint x="21" y="960" />
              <mxPoint x="21" y="1020" />
            </Array>
          </mxGeometry>
        </mxCell>
        <mxCell id="Hm8EP7w0Ib3eiv0fH3QQ-24" value="c = 1" style="rounded=0;whiteSpace=wrap;html=1;" vertex="1" parent="1">
          <mxGeometry x="-40" y="830" width="120" height="60" as="geometry" />
        </mxCell>
        <mxCell id="Hm8EP7w0Ib3eiv0fH3QQ-27" style="edgeStyle=orthogonalEdgeStyle;rounded=0;orthogonalLoop=1;jettySize=auto;html=1;" edge="1" parent="1" source="Hm8EP7w0Ib3eiv0fH3QQ-26" target="Hm8EP7w0Ib3eiv0fH3QQ-28">
          <mxGeometry relative="1" as="geometry">
            <mxPoint x="310" y="1120" as="targetPoint" />
          </mxGeometry>
        </mxCell>
        <mxCell id="Hm8EP7w0Ib3eiv0fH3QQ-26" value="с" style="rhombus;whiteSpace=wrap;html=1;" vertex="1" parent="1">
          <mxGeometry x="270" y="980" width="80" height="80" as="geometry" />
        </mxCell>
        <mxCell id="Hm8EP7w0Ib3eiv0fH3QQ-29" style="edgeStyle=orthogonalEdgeStyle;rounded=0;orthogonalLoop=1;jettySize=auto;html=1;" edge="1" parent="1" source="Hm8EP7w0Ib3eiv0fH3QQ-28" target="Hm8EP7w0Ib3eiv0fH3QQ-30">
          <mxGeometry relative="1" as="geometry">
            <mxPoint x="310" y="1190" as="targetPoint" />
          </mxGeometry>
        </mxCell>
        <mxCell id="Hm8EP7w0Ib3eiv0fH3QQ-33" style="edgeStyle=orthogonalEdgeStyle;rounded=0;orthogonalLoop=1;jettySize=auto;html=1;" edge="1" parent="1" source="Hm8EP7w0Ib3eiv0fH3QQ-28" target="Hm8EP7w0Ib3eiv0fH3QQ-34">
          <mxGeometry relative="1" as="geometry">
            <mxPoint x="390" y="1125" as="targetPoint" />
          </mxGeometry>
        </mxCell>
        <mxCell id="Hm8EP7w0Ib3eiv0fH3QQ-28" value="0" style="ellipse;whiteSpace=wrap;html=1;aspect=fixed;" vertex="1" parent="1">
          <mxGeometry x="285" y="1100" width="50" height="50" as="geometry" />
        </mxCell>
        <mxCell id="Hm8EP7w0Ib3eiv0fH3QQ-31" style="edgeStyle=orthogonalEdgeStyle;rounded=0;orthogonalLoop=1;jettySize=auto;html=1;" edge="1" parent="1" source="Hm8EP7w0Ib3eiv0fH3QQ-30" target="Hm8EP7w0Ib3eiv0fH3QQ-32">
          <mxGeometry relative="1" as="geometry">
            <mxPoint x="310" y="1280" as="targetPoint" />
          </mxGeometry>
        </mxCell>
        <mxCell id="Hm8EP7w0Ib3eiv0fH3QQ-35" style="edgeStyle=orthogonalEdgeStyle;rounded=0;orthogonalLoop=1;jettySize=auto;html=1;" edge="1" parent="1" source="Hm8EP7w0Ib3eiv0fH3QQ-30" target="Hm8EP7w0Ib3eiv0fH3QQ-36">
          <mxGeometry relative="1" as="geometry">
            <mxPoint x="420" y="1205" as="targetPoint" />
          </mxGeometry>
        </mxCell>
        <mxCell id="Hm8EP7w0Ib3eiv0fH3QQ-30" value="1" style="ellipse;whiteSpace=wrap;html=1;aspect=fixed;" vertex="1" parent="1">
          <mxGeometry x="285" y="1180" width="50" height="50" as="geometry" />
        </mxCell>
        <mxCell id="Hm8EP7w0Ib3eiv0fH3QQ-37" style="edgeStyle=orthogonalEdgeStyle;rounded=0;orthogonalLoop=1;jettySize=auto;html=1;" edge="1" parent="1" source="Hm8EP7w0Ib3eiv0fH3QQ-32" target="Hm8EP7w0Ib3eiv0fH3QQ-38">
          <mxGeometry relative="1" as="geometry">
            <mxPoint x="440" y="1285" as="targetPoint" />
          </mxGeometry>
        </mxCell>
        <mxCell id="Hm8EP7w0Ib3eiv0fH3QQ-45" style="edgeStyle=orthogonalEdgeStyle;rounded=0;orthogonalLoop=1;jettySize=auto;html=1;" edge="1" parent="1" source="Hm8EP7w0Ib3eiv0fH3QQ-32" target="Hm8EP7w0Ib3eiv0fH3QQ-46">
          <mxGeometry relative="1" as="geometry">
            <mxPoint x="310" y="1350" as="targetPoint" />
          </mxGeometry>
        </mxCell>
        <mxCell id="Hm8EP7w0Ib3eiv0fH3QQ-32" value="2" style="ellipse;whiteSpace=wrap;html=1;aspect=fixed;" vertex="1" parent="1">
          <mxGeometry x="285" y="1260" width="50" height="50" as="geometry" />
        </mxCell>
        <mxCell id="Hm8EP7w0Ib3eiv0fH3QQ-39" style="edgeStyle=orthogonalEdgeStyle;rounded=0;orthogonalLoop=1;jettySize=auto;html=1;" edge="1" parent="1" source="Hm8EP7w0Ib3eiv0fH3QQ-34" target="Hm8EP7w0Ib3eiv0fH3QQ-40">
          <mxGeometry relative="1" as="geometry">
            <mxPoint x="600" y="1125" as="targetPoint" />
          </mxGeometry>
        </mxCell>
        <mxCell id="Hm8EP7w0Ib3eiv0fH3QQ-34" value="YES" style="shape=parallelogram;perimeter=parallelogramPerimeter;whiteSpace=wrap;html=1;fixedSize=1;" vertex="1" parent="1">
          <mxGeometry x="414" y="1095" width="120" height="60" as="geometry" />
        </mxCell>
        <mxCell id="Hm8EP7w0Ib3eiv0fH3QQ-41" style="edgeStyle=orthogonalEdgeStyle;rounded=0;orthogonalLoop=1;jettySize=auto;html=1;" edge="1" parent="1" source="Hm8EP7w0Ib3eiv0fH3QQ-36" target="Hm8EP7w0Ib3eiv0fH3QQ-42">
          <mxGeometry relative="1" as="geometry">
            <mxPoint x="590" y="1205" as="targetPoint" />
          </mxGeometry>
        </mxCell>
        <mxCell id="Hm8EP7w0Ib3eiv0fH3QQ-36" value="NO" style="shape=parallelogram;perimeter=parallelogramPerimeter;whiteSpace=wrap;html=1;fixedSize=1;" vertex="1" parent="1">
          <mxGeometry x="400" y="1175" width="120" height="60" as="geometry" />
        </mxCell>
        <mxCell id="Hm8EP7w0Ib3eiv0fH3QQ-44" style="edgeStyle=orthogonalEdgeStyle;rounded=0;orthogonalLoop=1;jettySize=auto;html=1;entryX=0;entryY=0.5;entryDx=0;entryDy=0;" edge="1" parent="1" source="Hm8EP7w0Ib3eiv0fH3QQ-38" target="Hm8EP7w0Ib3eiv0fH3QQ-43">
          <mxGeometry relative="1" as="geometry" />
        </mxCell>
        <mxCell id="Hm8EP7w0Ib3eiv0fH3QQ-38" value="ERROR" style="shape=parallelogram;perimeter=parallelogramPerimeter;whiteSpace=wrap;html=1;fixedSize=1;" vertex="1" parent="1">
          <mxGeometry x="400" y="1255" width="120" height="60" as="geometry" />
        </mxCell>
        <mxCell id="Hm8EP7w0Ib3eiv0fH3QQ-55" style="edgeStyle=orthogonalEdgeStyle;rounded=0;orthogonalLoop=1;jettySize=auto;html=1;entryX=1;entryY=0.5;entryDx=0;entryDy=0;" edge="1" parent="1" source="Hm8EP7w0Ib3eiv0fH3QQ-40" target="Hm8EP7w0Ib3eiv0fH3QQ-49">
          <mxGeometry relative="1" as="geometry">
            <mxPoint x="800" y="1490" as="targetPoint" />
            <Array as="points">
              <mxPoint x="810" y="1125" />
              <mxPoint x="810" y="1480" />
            </Array>
          </mxGeometry>
        </mxCell>
        <mxCell id="Hm8EP7w0Ib3eiv0fH3QQ-40" value="break" style="rounded=0;whiteSpace=wrap;html=1;" vertex="1" parent="1">
          <mxGeometry x="590" y="1095" width="120" height="60" as="geometry" />
        </mxCell>
        <mxCell id="Hm8EP7w0Ib3eiv0fH3QQ-57" style="edgeStyle=orthogonalEdgeStyle;rounded=0;orthogonalLoop=1;jettySize=auto;html=1;exitX=1;exitY=0.5;exitDx=0;exitDy=0;" edge="1" parent="1" source="Hm8EP7w0Ib3eiv0fH3QQ-42">
          <mxGeometry relative="1" as="geometry">
            <mxPoint x="810" y="1205" as="targetPoint" />
          </mxGeometry>
        </mxCell>
        <mxCell id="Hm8EP7w0Ib3eiv0fH3QQ-42" value="break" style="shape=label;whiteSpace=wrap;html=1;fixedSize=1;rounded=0;" vertex="1" parent="1">
          <mxGeometry x="590" y="1175" width="120" height="60" as="geometry" />
        </mxCell>
        <mxCell id="Hm8EP7w0Ib3eiv0fH3QQ-58" style="edgeStyle=orthogonalEdgeStyle;rounded=0;orthogonalLoop=1;jettySize=auto;html=1;exitX=1;exitY=0.5;exitDx=0;exitDy=0;" edge="1" parent="1" source="Hm8EP7w0Ib3eiv0fH3QQ-43">
          <mxGeometry relative="1" as="geometry">
            <mxPoint x="810" y="1285" as="targetPoint" />
          </mxGeometry>
        </mxCell>
        <mxCell id="Hm8EP7w0Ib3eiv0fH3QQ-43" value="break" style="shape=label;whiteSpace=wrap;html=1;fixedSize=1;rounded=0;" vertex="1" parent="1">
          <mxGeometry x="590" y="1255" width="120" height="60" as="geometry" />
        </mxCell>
        <mxCell id="Hm8EP7w0Ib3eiv0fH3QQ-47" style="edgeStyle=orthogonalEdgeStyle;rounded=0;orthogonalLoop=1;jettySize=auto;html=1;" edge="1" parent="1" source="Hm8EP7w0Ib3eiv0fH3QQ-46" target="Hm8EP7w0Ib3eiv0fH3QQ-48">
          <mxGeometry relative="1" as="geometry">
            <mxPoint x="440" y="1370" as="targetPoint" />
          </mxGeometry>
        </mxCell>
        <mxCell id="Hm8EP7w0Ib3eiv0fH3QQ-46" value="default" style="rounded=1;whiteSpace=wrap;html=1;" vertex="1" parent="1">
          <mxGeometry x="285" y="1350" width="50" height="40" as="geometry" />
        </mxCell>
        <mxCell id="Hm8EP7w0Ib3eiv0fH3QQ-60" style="edgeStyle=orthogonalEdgeStyle;rounded=0;orthogonalLoop=1;jettySize=auto;html=1;exitX=1;exitY=0.5;exitDx=0;exitDy=0;" edge="1" parent="1" source="Hm8EP7w0Ib3eiv0fH3QQ-48">
          <mxGeometry relative="1" as="geometry">
            <mxPoint x="810" y="1369.6666666666667" as="targetPoint" />
          </mxGeometry>
        </mxCell>
        <mxCell id="Hm8EP7w0Ib3eiv0fH3QQ-48" value="break" style="rounded=0;whiteSpace=wrap;html=1;" vertex="1" parent="1">
          <mxGeometry x="390" y="1340" width="120" height="60" as="geometry" />
        </mxCell>
        <mxCell id="Hm8EP7w0Ib3eiv0fH3QQ-49" value="End" style="ellipse;whiteSpace=wrap;html=1;fillColor=#f8cecc;strokeColor=#b85450;" vertex="1" parent="1">
          <mxGeometry x="250" y="1440" width="120" height="80" as="geometry" />
        </mxCell>
        <mxCell id="Hm8EP7w0Ib3eiv0fH3QQ-51" style="edgeStyle=orthogonalEdgeStyle;rounded=0;orthogonalLoop=1;jettySize=auto;html=1;entryX=0.74;entryY=0.1;entryDx=0;entryDy=0;entryPerimeter=0;" edge="1" parent="1" source="Hm8EP7w0Ib3eiv0fH3QQ-50" target="Hm8EP7w0Ib3eiv0fH3QQ-28">
          <mxGeometry relative="1" as="geometry">
            <mxPoint x="340" y="1110" as="targetPoint" />
            <Array as="points">
              <mxPoint x="570" y="920" />
              <mxPoint x="571" y="920" />
              <mxPoint x="571" y="1040" />
              <mxPoint x="340" y="1040" />
              <mxPoint x="340" y="1105" />
            </Array>
          </mxGeometry>
        </mxCell>
        <mxCell id="Hm8EP7w0Ib3eiv0fH3QQ-50" value="c = 2" style="rounded=0;whiteSpace=wrap;html=1;" vertex="1" parent="1">
          <mxGeometry x="510" y="700" width="120" height="60" as="geometry" />
        </mxCell>
      </root>
    </mxGraphModel>
  </diagram>
</mxfile>
